<mxfile host="app.diagrams.net" modified="2021-01-02T16:53:59.889Z" agent="5.0 (Windows NT 10.0; Win64; x64) AppleWebKit/537.36 (KHTML, like Gecko) Chrome/87.0.4280.88 Safari/537.36" etag="bQgQ035hGYL4EQGatiOq" version="14.1.7" type="github">
  <diagram id="C5RBs43oDa-KdzZeNtuy" name="Page-1">
    <mxGraphModel dx="1176" dy="548" grid="1" gridSize="10" guides="1" tooltips="1" connect="1" arrows="1" fold="1" page="1" pageScale="1" pageWidth="827" pageHeight="1169" math="0" shadow="0">
      <root>
        <mxCell id="WIyWlLk6GJQsqaUBKTNV-0" />
        <mxCell id="WIyWlLk6GJQsqaUBKTNV-1" parent="WIyWlLk6GJQsqaUBKTNV-0" />
        <mxCell id="MkvDkvvttbe9MnteuLk_-28" style="edgeStyle=orthogonalEdgeStyle;rounded=0;orthogonalLoop=1;jettySize=auto;html=1;exitX=0;exitY=0.75;exitDx=0;exitDy=0;" edge="1" parent="WIyWlLk6GJQsqaUBKTNV-1" source="MkvDkvvttbe9MnteuLk_-0">
          <mxGeometry relative="1" as="geometry">
            <mxPoint x="270" y="374" as="targetPoint" />
          </mxGeometry>
        </mxCell>
        <mxCell id="MkvDkvvttbe9MnteuLk_-0" value="" style="rounded=1;whiteSpace=wrap;html=1;arcSize=0;" vertex="1" parent="WIyWlLk6GJQsqaUBKTNV-1">
          <mxGeometry x="300" y="55" width="950" height="685" as="geometry" />
        </mxCell>
        <mxCell id="MkvDkvvttbe9MnteuLk_-1" value="&lt;font style=&quot;font-size: 15px&quot;&gt;&lt;b&gt;Covid 19 Tracker&lt;/b&gt;&lt;/font&gt;" style="rounded=0;whiteSpace=wrap;html=1;" vertex="1" parent="WIyWlLk6GJQsqaUBKTNV-1">
          <mxGeometry x="330" y="100" width="120" height="30" as="geometry" />
        </mxCell>
        <mxCell id="MkvDkvvttbe9MnteuLk_-2" value="&lt;u&gt;Worldwide&lt;/u&gt;" style="rounded=1;whiteSpace=wrap;html=1;" vertex="1" parent="WIyWlLk6GJQsqaUBKTNV-1">
          <mxGeometry x="490" y="100" width="120" height="30" as="geometry" />
        </mxCell>
        <mxCell id="MkvDkvvttbe9MnteuLk_-11" value="" style="rounded=1;whiteSpace=wrap;html=1;" vertex="1" parent="WIyWlLk6GJQsqaUBKTNV-1">
          <mxGeometry x="690" y="180" width="150" height="110" as="geometry" />
        </mxCell>
        <mxCell id="MkvDkvvttbe9MnteuLk_-12" value="CoronaVirus Cases" style="text;html=1;strokeColor=none;fillColor=none;align=center;verticalAlign=middle;whiteSpace=wrap;rounded=0;" vertex="1" parent="WIyWlLk6GJQsqaUBKTNV-1">
          <mxGeometry x="530" y="190" width="130" height="20" as="geometry" />
        </mxCell>
        <mxCell id="MkvDkvvttbe9MnteuLk_-13" value="2.000" style="text;html=1;strokeColor=none;fillColor=none;align=center;verticalAlign=middle;whiteSpace=wrap;rounded=0;" vertex="1" parent="WIyWlLk6GJQsqaUBKTNV-1">
          <mxGeometry x="540" y="225" width="40" height="20" as="geometry" />
        </mxCell>
        <mxCell id="MkvDkvvttbe9MnteuLk_-14" value="1.2 M Total" style="text;html=1;strokeColor=none;fillColor=none;align=center;verticalAlign=middle;whiteSpace=wrap;rounded=0;" vertex="1" parent="WIyWlLk6GJQsqaUBKTNV-1">
          <mxGeometry x="530" y="260" width="70" height="20" as="geometry" />
        </mxCell>
        <mxCell id="MkvDkvvttbe9MnteuLk_-15" value="CoronaVirus Cases" style="text;html=1;strokeColor=none;fillColor=none;align=center;verticalAlign=middle;whiteSpace=wrap;rounded=0;" vertex="1" parent="WIyWlLk6GJQsqaUBKTNV-1">
          <mxGeometry x="340" y="190" width="130" height="20" as="geometry" />
        </mxCell>
        <mxCell id="MkvDkvvttbe9MnteuLk_-16" value="2.000" style="text;html=1;strokeColor=none;fillColor=none;align=center;verticalAlign=middle;whiteSpace=wrap;rounded=0;" vertex="1" parent="WIyWlLk6GJQsqaUBKTNV-1">
          <mxGeometry x="350" y="225" width="40" height="20" as="geometry" />
        </mxCell>
        <mxCell id="MkvDkvvttbe9MnteuLk_-17" value="1.2 M Total" style="text;html=1;strokeColor=none;fillColor=none;align=center;verticalAlign=middle;whiteSpace=wrap;rounded=0;" vertex="1" parent="WIyWlLk6GJQsqaUBKTNV-1">
          <mxGeometry x="340" y="260" width="70" height="20" as="geometry" />
        </mxCell>
        <mxCell id="MkvDkvvttbe9MnteuLk_-18" value="" style="rounded=1;whiteSpace=wrap;html=1;" vertex="1" parent="WIyWlLk6GJQsqaUBKTNV-1">
          <mxGeometry x="510" y="180" width="170" height="110" as="geometry" />
        </mxCell>
        <mxCell id="MkvDkvvttbe9MnteuLk_-20" value="recovered" style="text;html=1;strokeColor=none;fillColor=none;align=center;verticalAlign=middle;whiteSpace=wrap;rounded=0;" vertex="1" parent="WIyWlLk6GJQsqaUBKTNV-1">
          <mxGeometry x="530" y="190" width="130" height="20" as="geometry" />
        </mxCell>
        <mxCell id="MkvDkvvttbe9MnteuLk_-22" value="2.000" style="text;html=1;strokeColor=none;fillColor=none;align=center;verticalAlign=middle;whiteSpace=wrap;rounded=0;" vertex="1" parent="WIyWlLk6GJQsqaUBKTNV-1">
          <mxGeometry x="575" y="225" width="40" height="20" as="geometry" />
        </mxCell>
        <mxCell id="MkvDkvvttbe9MnteuLk_-23" value="1.2 M Total" style="text;html=1;strokeColor=none;fillColor=none;align=center;verticalAlign=middle;whiteSpace=wrap;rounded=0;" vertex="1" parent="WIyWlLk6GJQsqaUBKTNV-1">
          <mxGeometry x="565" y="257.5" width="70" height="20" as="geometry" />
        </mxCell>
        <mxCell id="MkvDkvvttbe9MnteuLk_-24" value="deaths" style="text;html=1;strokeColor=none;fillColor=none;align=center;verticalAlign=middle;whiteSpace=wrap;rounded=0;" vertex="1" parent="WIyWlLk6GJQsqaUBKTNV-1">
          <mxGeometry x="700" y="190" width="130" height="20" as="geometry" />
        </mxCell>
        <mxCell id="MkvDkvvttbe9MnteuLk_-25" value="2.000" style="text;html=1;strokeColor=none;fillColor=none;align=center;verticalAlign=middle;whiteSpace=wrap;rounded=0;" vertex="1" parent="WIyWlLk6GJQsqaUBKTNV-1">
          <mxGeometry x="745" y="225" width="40" height="20" as="geometry" />
        </mxCell>
        <mxCell id="MkvDkvvttbe9MnteuLk_-26" value="2.000" style="text;html=1;strokeColor=none;fillColor=none;align=center;verticalAlign=middle;whiteSpace=wrap;rounded=0;" vertex="1" parent="WIyWlLk6GJQsqaUBKTNV-1">
          <mxGeometry x="745" y="225" width="40" height="20" as="geometry" />
        </mxCell>
        <mxCell id="MkvDkvvttbe9MnteuLk_-27" value="1.2 M Total" style="text;html=1;strokeColor=none;fillColor=none;align=center;verticalAlign=middle;whiteSpace=wrap;rounded=0;" vertex="1" parent="WIyWlLk6GJQsqaUBKTNV-1">
          <mxGeometry x="715" y="257.5" width="70" height="20" as="geometry" />
        </mxCell>
        <mxCell id="MkvDkvvttbe9MnteuLk_-29" value="" style="rounded=1;whiteSpace=wrap;html=1;" vertex="1" parent="WIyWlLk6GJQsqaUBKTNV-1">
          <mxGeometry x="329" y="180" width="170" height="110" as="geometry" />
        </mxCell>
        <mxCell id="MkvDkvvttbe9MnteuLk_-30" value="CoronaVirus Cases" style="text;html=1;strokeColor=none;fillColor=none;align=center;verticalAlign=middle;whiteSpace=wrap;rounded=0;" vertex="1" parent="WIyWlLk6GJQsqaUBKTNV-1">
          <mxGeometry x="350" y="190" width="130" height="20" as="geometry" />
        </mxCell>
        <mxCell id="MkvDkvvttbe9MnteuLk_-31" value="2.000" style="text;html=1;strokeColor=none;fillColor=none;align=center;verticalAlign=middle;whiteSpace=wrap;rounded=0;" vertex="1" parent="WIyWlLk6GJQsqaUBKTNV-1">
          <mxGeometry x="385" y="225" width="40" height="20" as="geometry" />
        </mxCell>
        <mxCell id="MkvDkvvttbe9MnteuLk_-32" value="2.000" style="text;html=1;strokeColor=none;fillColor=none;align=center;verticalAlign=middle;whiteSpace=wrap;rounded=0;" vertex="1" parent="WIyWlLk6GJQsqaUBKTNV-1">
          <mxGeometry x="385" y="225" width="40" height="20" as="geometry" />
        </mxCell>
        <mxCell id="MkvDkvvttbe9MnteuLk_-33" value="1.2 M Total" style="text;html=1;strokeColor=none;fillColor=none;align=center;verticalAlign=middle;whiteSpace=wrap;rounded=0;" vertex="1" parent="WIyWlLk6GJQsqaUBKTNV-1">
          <mxGeometry x="370" y="260" width="70" height="20" as="geometry" />
        </mxCell>
        <mxCell id="MkvDkvvttbe9MnteuLk_-34" value="" style="rounded=1;whiteSpace=wrap;html=1;" vertex="1" parent="WIyWlLk6GJQsqaUBKTNV-1">
          <mxGeometry x="379" y="330" width="481" height="390" as="geometry" />
        </mxCell>
        <mxCell id="MkvDkvvttbe9MnteuLk_-35" value="" style="shape=image;html=1;verticalAlign=top;verticalLabelPosition=bottom;labelBackgroundColor=#ffffff;imageAspect=0;aspect=fixed;image=https://cdn2.iconfinder.com/data/icons/social-media-2259/512/google-128.png" vertex="1" parent="WIyWlLk6GJQsqaUBKTNV-1">
          <mxGeometry x="552" y="461" width="128" height="128" as="geometry" />
        </mxCell>
        <mxCell id="MkvDkvvttbe9MnteuLk_-36" value="" style="rounded=1;whiteSpace=wrap;html=1;" vertex="1" parent="WIyWlLk6GJQsqaUBKTNV-1">
          <mxGeometry x="890" y="170" width="260" height="550" as="geometry" />
        </mxCell>
      </root>
    </mxGraphModel>
  </diagram>
</mxfile>
